# xmcd CD database file generated by OrangeCD 6.1
#
# Track frame offsets:
#	150
#	21000
#	35175
#	49951
#	65627
#	79878
#	93604
#	106129
#	120302
#	135900
#
# Disc length: 2080 seconds
#
# Revision: 0
# Processed by: cddbd v1.5.2PL0 Copyright (c) Steve Scherf et al.
# Submitted via: OrangeCD 6.1
#
DISCID=82081e0a
DTITLE=The Manhattans - The Manhattans
DYEAR=1976
DGENRE=Soul
TTITLE0=Searching For Love
TTITLE1=We'll Have Forever To Love
TTITLE2=Take It Or Leave It
TTITLE3=Reasons
TTITLE4=How Can Anything So Good Be So Bad For You
TTITLE5=Hurt
TTITLE6=Wonderful World Of Love
TTITLE7=If You're Ever Gonna Love Me
TTITLE8=La La La Wish Upon A Star
TTITLE9=Kiss And Say Goodbye
EXTD=
EXTT0=
EXTT1=
EXTT2=
EXTT3=
EXTT4=
EXTT5=
EXTT6=
EXTT7=
EXTT8=
EXTT9=
PLAYORDER=
